<svg xmlns="http://www.w3.org/2000/svg" width="38" height="38" viewBox="0 0 38 38">
  <g id="Group_10" data-name="Group 10" transform="translate(0.5 0.5)">
    <g id="gender-fluid">
      <path id="Path" d="M8.444,19.723v4.592H5.278a1.1,1.1,0,0,0,0,2.2H8.444V29.9a1.057,1.057,0,1,0,2.111,0V26.519h3.167a1.1,1.1,0,0,0,0-2.2H10.556V19.727h0a1.474,1.474,0,0,0,.621-2.057l-.185-.2A7.088,7.088,0,0,1,9.5,17.63,7.565,7.565,0,0,1,2.111,9.917,7.565,7.565,0,0,1,9.5,2.2a7.661,7.661,0,0,1,7.389,7.713,7.879,7.879,0,0,1-.855,3.525h0a1.633,1.633,0,0,0,2.225-.715L19,9.917C19,4.806,14.973,0,9.5,0A9.726,9.726,0,0,0,0,9.917,9.749,9.749,0,0,0,8.444,19.723Z" transform="translate(0 6)" fill="#294fff" stroke="#294fff" stroke-miterlimit="10" stroke-width="1"/>
      <path id="Path-2" data-name="Path" d="M25.881,0H19.169a1.125,1.125,0,0,0,0,2.25H23.18L16.319,9a9.934,9.934,0,0,0-6.25-2.249l-.862.159a1.6,1.6,0,0,0-.719,2.253h0C9.134,9.479,9.528,9,10.069,9a7.875,7.875,0,0,1,0,15.75,7.951,7.951,0,0,1-7.831-7.875l.63-2.5a1.886,1.886,0,0,0-.609-1.8h0a.877.877,0,0,0-1.185.387L0,16.875A10.224,10.224,0,0,0,10.069,27,10.078,10.078,0,0,0,17.9,10.59l6.861-6.749V7.875a1.119,1.119,0,1,0,2.238,0V1.125A1.126,1.126,0,0,0,25.881,0Z" transform="translate(10)" fill="#294fff" stroke="#294fff" stroke-miterlimit="10" stroke-width="1"/>
    </g>
  </g>
</svg>
