<?xml version="1.0" encoding="UTF-8"?>
<svg width="171px" height="62px" viewBox="0 0 171 62" version="1.1" xmlns="http://www.w3.org/2000/svg" xmlns:xlink="http://www.w3.org/1999/xlink">
    <!-- Generator: Sketch 63.1 (92452) - https://sketch.com -->
    <title>Group 3</title>
    <desc>Created with Sketch.</desc>
    <g id="Page-3" stroke="none" stroke-width="1" fill="none" fill-rule="evenodd">
        <g id="Desktop-HD" transform="translate(-43.000000, -25.000000)">
            <rect id="Rectangle" fill="#FFFFFF" x="29" y="6" width="1191" height="99"></rect>
            <g id="Group-3" transform="translate(43.000000, 25.000000)">
                <g id="logo" transform="translate(83.000000, 19.000000)" fill="#3F3F3F" fill-rule="nonzero">
                    <g id="Group">
                        <path d="M9.26783636,28 C10.7132787,28 12.0311821,27.6426426 13.2215464,26.9279279 C14.4119107,26.2132132 15.3613679,25.2532533 16.0699181,24.048048 C16.7784683,22.8428428 17.1327434,21.5255255 17.1327434,20.0960961 C17.1327434,18.7507508 16.8422378,17.5175175 16.2612266,16.3963964 C15.6802155,15.2752753 14.8795538,14.3363363 13.8592415,13.5795796 C14.5677917,12.8228228 15.1275464,11.960961 15.5385055,10.993994 C15.9494646,10.027027 16.1549441,8.996997 16.1549441,7.9039039 C16.1549441,6.41841842 15.8360965,5.08708709 15.1984014,3.90990991 C14.5607062,2.73273273 13.6466765,1.79379379 12.4563122,1.09309309 C11.2659479,0.392392392 9.87718952,0.028028028 8.29003711,0 L8.29003711,0 L0,0 L0,28 L9.26783636,28 Z M8.38695124,12.4444444 L3.89380531,12.4444444 L3.89380531,3.88888889 L8.38695124,3.88888889 C9.56272775,3.88888889 10.5355428,4.29218107 11.3053965,5.09876543 C12.0752502,5.90534979 12.460177,6.91358025 12.460177,8.12345679 C12.460177,9.33333333 12.0682515,10.3559671 11.2844005,11.191358 C10.5005495,12.026749 9.53473307,12.4444444 8.38695124,12.4444444 L8.38695124,12.4444444 Z M9.24564344,24.1111111 L3.89380531,24.1111111 L3.89380531,15.5555556 L9.24564344,15.5555556 C10.3709017,15.5555556 11.3177654,15.973251 12.0862345,16.808642 C12.8547035,17.6440329 13.2389381,18.6666667 13.2389381,19.8765432 C13.2389381,21.0576132 12.8547035,22.058642 12.0862345,22.8796296 C11.3177654,23.7006173 10.3709017,24.1111111 9.24564344,24.1111111 L9.24564344,24.1111111 Z M34.6340489,28 C35.9386664,28 37.1738894,27.693837 38.3397179,27.0815109 C39.5055463,26.4691849 40.5325856,25.6481113 41.4208359,24.6182903 L41.4208359,24.6182903 L41.4208359,27.7912525 L45.1681416,27.7912525 L45.1681416,7.41749503 L41.4208359,7.41749503 L41.4208359,10.1729622 C40.5881013,9.17097416 39.5818803,8.3916501 38.402173,7.83499006 C37.2224656,7.27833002 35.9664243,7 34.6340489,7 C33.1906423,7 31.8374485,7.26441352 30.5744677,7.79324056 C29.3114869,8.32206759 28.1942346,9.07355865 27.2227109,10.0477137 C26.2511872,11.0218688 25.4947866,12.1560636 24.9535092,13.4502982 C24.4122317,14.7445328 24.1415929,16.1013917 24.1415929,17.5208748 C24.1415929,18.9403579 24.4122317,20.2972167 24.9535092,21.5914513 C25.4947866,22.8856859 26.2511872,24.0059642 27.2227109,24.9522863 C28.1942346,25.9264414 29.3114869,26.6779324 30.5744677,27.2067594 C31.8374485,27.7355865 33.1906423,28 34.6340489,28 Z M34.6752349,24.1111111 C33.7790606,24.1111111 32.9168323,23.9415954 32.08855,23.6025641 C31.2602678,23.2635328 30.5474019,22.7956695 29.9499523,22.1989744 C29.3525028,21.6022792 28.8840481,20.897094 28.5445882,20.0834188 C28.2051282,19.2697436 28.0353982,18.4153846 28.0353982,17.5203419 C28.0353982,16.6252991 28.2051282,15.7641595 28.5445882,14.9369231 C28.8840481,14.1096866 29.3525028,13.3977208 29.9499523,12.8010256 C30.5474019,12.2043305 31.2602678,11.7364672 32.08855,11.3974359 C32.9168323,11.0584046 33.7790606,10.8888889 34.6752349,10.8888889 C35.5714091,10.8888889 36.4268482,11.0584046 37.2415521,11.3974359 C38.056256,11.7364672 38.7623327,12.2043305 39.3597822,12.8010256 C39.9572317,13.3977208 40.4256864,14.1096866 40.7651464,14.9369231 C41.1046063,15.7641595 41.2743363,16.6252991 41.2743363,17.5203419 C41.2743363,18.4153846 41.1046063,19.2697436 40.7651464,20.0834188 C40.4256864,20.897094 39.9572317,21.6022792 39.3597822,22.1989744 C38.7623327,22.7956695 38.056256,23.2635328 37.2415521,23.6025641 C36.4268482,23.9415954 35.5714091,24.1111111 34.6752349,24.1111111 Z M55.2920354,28 L55.2920354,0 L52.1769912,0 L52.1769912,28 L55.2920354,28 Z M66.1946903,28 L66.1946903,0 L63.079646,0 L63.079646,28 L66.1946903,28 Z M81.3584071,28 C82.2551622,28 83.1168879,27.8219178 83.9435841,27.4657534 C84.7702802,27.109589 85.4918879,26.6438356 86.1084071,26.0684932 C87.369469,24.890411 88,23.4931507 88,21.8767123 C88,20.2876712 87.6847345,19.0547945 87.0542035,18.1780822 C86.4236726,17.3013699 85.5269174,16.6849315 84.3639381,16.3287671 C83.2009587,15.9726027 81.6806785,15.7534247 79.8030973,15.6712329 C78.7382006,15.6438356 77.9675516,15.369863 77.4911504,14.8493151 C77.0427729,14.3561644 76.8185841,13.8082192 76.8185841,13.2054795 C76.8185841,12.7123288 76.965708,12.260274 77.2599558,11.8493151 C77.5542035,11.4383562 77.9955752,11.1232877 78.5840708,10.9041096 C79.0324484,10.7123288 79.6769912,10.6164384 80.5176991,10.6164384 C82.0870206,10.6164384 83.1379056,11.0684932 83.670354,11.9726027 C83.95059,12.4109589 84.1327434,12.8767123 84.2168142,13.369863 L84.2168142,13.369863 L87.789823,13.369863 L87.8738938,13.3287671 C87.7057522,12.0136986 87.3414454,10.9178082 86.7809735,10.0410959 C86.1924779,9.16438356 85.4918879,8.47945205 84.6792035,7.98630137 C83.530236,7.32876712 82.1851032,7 80.6438053,7 C78.5420354,7 76.8536136,7.47260274 75.5785398,8.41780822 C74.3034661,9.3630137 73.5538348,10.7260274 73.329646,12.5068493 C73.3016224,12.6986301 73.2876106,12.9726027 73.2876106,13.3287671 C73.2876106,14.9178082 73.7640118,16.2328767 74.7168142,17.2739726 C75.8938053,18.6438356 77.589233,19.3287671 79.8030973,19.3287671 C81.5685841,19.3287671 82.759587,19.4794521 83.3761062,19.7808219 C83.9926254,20.0821918 84.300885,20.7260274 84.300885,21.7123288 C84.300885,22.4246575 84.020649,23.0205479 83.460177,23.5 C82.899705,23.9794521 82.129056,24.2465753 81.1482301,24.3013699 C81.0081121,24.3287671 80.7839233,24.3424658 80.4756637,24.3424658 C79.3266962,24.3424658 78.429941,24.0410959 77.7853982,23.4383562 C77.3650442,23.0273973 77.0848083,22.4931507 76.9446903,21.8356164 L76.9446903,21.8356164 L73.2035398,21.8356164 C73.4837758,23.6712329 74.1843658,25.0958904 75.3053097,26.109589 C76.6784661,27.369863 78.4859882,28 80.7278761,28 L80.7278761,28 L81.3584071,28 Z" id="Balls"></path>
                    </g>
                </g>
                <g id="Group-2">
                    <ellipse id="Oval" fill="#FFCA28" cx="20.564852" cy="40.7147636" rx="20.564852" ry="20.65594"></ellipse>
                    <ellipse id="Oval" stroke="#294FFF" stroke-width="6" opacity="0.533575149" cx="41.34673" cy="30.7890427" rx="27.65327" ry="27.7890427"></ellipse>
                </g>
            </g>
        </g>
    </g>
</svg>
