<svg id="Group_9" data-name="Group 9" xmlns="http://www.w3.org/2000/svg" width="39" height="25" viewBox="0 0 39 25">
  <g id="Group_4" data-name="Group 4">
    <g id="user_copy" data-name="user copy">
      <path id="Shape" d="M4,8A3.87,3.87,0,0,0,6.828,6.828,3.871,3.871,0,0,0,8,4,3.871,3.871,0,0,0,6.828,1.172,3.871,3.871,0,0,0,4,0,3.87,3.87,0,0,0,1.172,1.172,3.871,3.871,0,0,0,0,4,3.871,3.871,0,0,0,1.172,6.828,3.872,3.872,0,0,0,4,8Z" transform="translate(2)" fill="#294fff"/>
      <path id="Shape-2" data-name="Shape" d="M12.968,4.425a9.146,9.146,0,0,0-.126-.978,7.66,7.66,0,0,0-.242-.983,4.84,4.84,0,0,0-.407-.917A3.459,3.459,0,0,0,11.58.752,2.708,2.708,0,0,0,10.7.2,3.065,3.065,0,0,0,9.573,0a1.147,1.147,0,0,0-.61.257c-.183.118-.4.255-.635.407a3.654,3.654,0,0,1-.822.36A3.286,3.286,0,0,1,6.5,1.185a3.288,3.288,0,0,1-1.006-.161,3.643,3.643,0,0,1-.822-.36c-.236-.15-.45-.287-.636-.407A1.145,1.145,0,0,0,3.427,0,3.061,3.061,0,0,0,2.3.2a2.706,2.706,0,0,0-.882.55,3.46,3.46,0,0,0-.613.794A4.849,4.849,0,0,0,.4,2.464a7.679,7.679,0,0,0-.242.983,9.084,9.084,0,0,0-.126.978c-.021.3-.031.6-.031.914A2.56,2.56,0,0,0,.768,7.283,2.777,2.777,0,0,0,2.749,8h7.5a2.777,2.777,0,0,0,1.98-.717A2.559,2.559,0,0,0,13,5.339c0-.312-.011-.619-.032-.914Z" transform="translate(0 8)" fill="#294fff"/>
    </g>
    <g id="user_copy_2" data-name="user copy 2" transform="translate(26)">
      <path id="Shape-3" data-name="Shape" d="M4,8A3.87,3.87,0,0,0,6.828,6.828,3.871,3.871,0,0,0,8,4,3.871,3.871,0,0,0,6.828,1.172,3.871,3.871,0,0,0,4,0,3.87,3.87,0,0,0,1.172,1.172,3.871,3.871,0,0,0,0,4,3.871,3.871,0,0,0,1.172,6.828,3.872,3.872,0,0,0,4,8Z" transform="translate(2)" fill="#294fff"/>
      <path id="Shape-4" data-name="Shape" d="M12.968,4.425a9.146,9.146,0,0,0-.126-.978,7.66,7.66,0,0,0-.242-.983,4.84,4.84,0,0,0-.407-.917A3.459,3.459,0,0,0,11.58.752,2.708,2.708,0,0,0,10.7.2,3.065,3.065,0,0,0,9.573,0a1.147,1.147,0,0,0-.61.257c-.183.118-.4.255-.635.407a3.654,3.654,0,0,1-.822.36A3.286,3.286,0,0,1,6.5,1.185a3.288,3.288,0,0,1-1.006-.161,3.643,3.643,0,0,1-.822-.36c-.236-.15-.45-.287-.636-.407A1.145,1.145,0,0,0,3.427,0,3.061,3.061,0,0,0,2.3.2a2.706,2.706,0,0,0-.882.55,3.46,3.46,0,0,0-.613.794A4.849,4.849,0,0,0,.4,2.464a7.679,7.679,0,0,0-.242.983,9.084,9.084,0,0,0-.126.978c-.021.3-.031.6-.031.914A2.56,2.56,0,0,0,.768,7.283,2.777,2.777,0,0,0,2.749,8h7.5a2.777,2.777,0,0,0,1.98-.717A2.559,2.559,0,0,0,13,5.339c0-.312-.011-.619-.032-.914Z" transform="translate(0 8)" fill="#294fff"/>
    </g>
    <g id="user" transform="translate(11 5)">
      <path id="Path_2" data-name="Path 2" d="M1.643,1.431S2.882-.477,4.449.159a13.867,13.867,0,0,0,8.194,0c3.613-.958,2.973,7.662,2.973,7.662L12.239,9.1H3.39L.884,7.821,0,4.711Z" transform="translate(0.357 10.57)" fill="#fff"/>
      <path id="Shape-5" data-name="Shape" d="M5,10A4.838,4.838,0,0,0,8.535,8.535,4.839,4.839,0,0,0,10,5,4.839,4.839,0,0,0,8.535,1.465,4.839,4.839,0,0,0,5,0,4.838,4.838,0,0,0,1.465,1.465,4.838,4.838,0,0,0,0,5,4.838,4.838,0,0,0,1.465,8.535,4.84,4.84,0,0,0,5,10Z" transform="translate(3)" fill="#294fff"/>
      <path id="Shape-6" data-name="Shape" d="M16.959,5.531a10.954,10.954,0,0,0-.165-1.222,9.229,9.229,0,0,0-.317-1.229,5.919,5.919,0,0,0-.532-1.146,4.355,4.355,0,0,0-.8-.993A3.569,3.569,0,0,0,13.99.253,4.173,4.173,0,0,0,12.518,0a1.539,1.539,0,0,0-.8.321c-.239.148-.519.319-.831.509a4.892,4.892,0,0,1-1.075.45,4.478,4.478,0,0,1-1.315.2,4.481,4.481,0,0,1-1.315-.2A4.877,4.877,0,0,1,6.11.83C5.8.642,5.521.471,5.278.321A1.537,1.537,0,0,0,4.481,0,4.168,4.168,0,0,0,3.01.253,3.566,3.566,0,0,0,1.857.941a4.356,4.356,0,0,0-.8.993A5.93,5.93,0,0,0,.522,3.08,9.25,9.25,0,0,0,.206,4.308,10.88,10.88,0,0,0,.041,5.531C.014,5.9,0,6.285,0,6.673A3.129,3.129,0,0,0,1,9.1a3.731,3.731,0,0,0,2.589.9h9.811a3.732,3.732,0,0,0,2.589-.9A3.127,3.127,0,0,0,17,6.673c0-.39-.014-.774-.041-1.143Z" transform="translate(0 10)" fill="#294fff"/>
    </g>
  </g>
</svg>
